<svg width="736" height="736" xmlns="http://www.w3.org/2000/svg" xmlns:xlink="http://www.w3.org/1999/xlink" overflow="hidden"><defs><clipPath id="clip0"><path d="M789 506 1525 506 1525 1242 789 1242Z" fill-rule="evenodd" clip-rule="evenodd"/></clipPath></defs><g clip-path="url(#clip0)" transform="translate(-789 -506)"><path d="M789 874C789 671.312 953.535 507 1156.5 507 1359.46 507 1524 671.312 1524 874 1524 1076.69 1359.46 1241 1156.5 1241 953.535 1241 789 1076.69 789 874Z" fill="#A9D18E" fill-rule="evenodd"/><path d="M1000 755.668C1000 727.685 1022.68 705 1050.67 705L1253.33 705C1281.32 705 1304 727.685 1304 755.668L1304 1016.33C1304 1044.32 1281.32 1067 1253.33 1067L1050.67 1067C1022.68 1067 1000 1044.32 1000 1016.33Z" fill="#C9A17D" fill-rule="evenodd"/><path d="M1192 812.833C1192 806.85 1196.85 802 1202.83 802L1246.17 802C1252.15 802 1257 806.85 1257 812.833L1257 882.167C1257 888.15 1252.15 893 1246.17 893L1202.83 893C1196.85 893 1192 888.15 1192 882.167Z" fill="#FFFFFF" fill-rule="evenodd"/><path d="M1204 842.833C1204 839.059 1207.06 836 1210.83 836L1238.17 836C1241.94 836 1245 839.059 1245 842.833L1245 886.167C1245 889.941 1241.94 893 1238.17 893L1210.83 893C1207.06 893 1204 889.941 1204 886.167Z" stroke="#8FAADC" stroke-width="2" stroke-miterlimit="8" fill="#8FAADC" fill-rule="evenodd"/><path d="M1064 812.833C1064 806.85 1068.85 802 1074.83 802L1118.17 802C1124.15 802 1129 806.85 1129 812.833L1129 882.167C1129 888.15 1124.15 893 1118.17 893L1074.83 893C1068.85 893 1064 888.15 1064 882.167Z" fill="#FFFFFF" fill-rule="evenodd"/><path d="M1073 842.833C1073 839.059 1076.06 836 1079.83 836L1107.17 836C1110.94 836 1114 839.059 1114 842.833L1114 886.167C1114 889.941 1110.94 893 1107.17 893L1079.83 893C1076.06 893 1073 889.941 1073 886.167Z" stroke="#8FAADC" stroke-width="2" stroke-miterlimit="8" fill="#8FAADC" fill-rule="evenodd"/><path d="M1022.5 819.834C1022.5 810.261 1030.26 802.5 1039.83 802.5L1131.17 802.5C1140.74 802.5 1148.5 810.261 1148.5 819.834L1148.5 889.166C1148.5 898.739 1140.74 906.5 1131.17 906.5L1039.83 906.5C1030.26 906.5 1022.5 898.739 1022.5 889.166Z" stroke="#000000" stroke-width="13" stroke-miterlimit="8" fill="none" fill-rule="evenodd"/><path d="M1160.5 814.834C1160.5 805.26 1168.26 797.5 1177.83 797.5L1270.17 797.5C1279.74 797.5 1287.5 805.26 1287.5 814.834L1287.5 884.166C1287.5 893.74 1279.74 901.5 1270.17 901.5L1177.83 901.5C1168.26 901.5 1160.5 893.74 1160.5 884.166Z" stroke="#000000" stroke-width="13" stroke-miterlimit="8" fill="none" fill-rule="evenodd"/><path d="M1030 951 1030 951 1201.06 1022 1266 985.711 1030 951Z" stroke="#D33B0B" stroke-width="2" stroke-miterlimit="8" stroke-opacity="0.141176" fill-rule="evenodd"/><path d="M1000 1029.5C1000 1025.36 1003.36 1022 1007.5 1022L1296.5 1022C1300.64 1022 1304 1025.36 1304 1029.5L1304 1059.5C1304 1063.64 1300.64 1067 1296.5 1067L1007.5 1067C1003.36 1067 1000 1063.64 1000 1059.5Z" fill="#A75D2B" fill-rule="evenodd"/><path d="M1092.74 673.602C1093.62 665.218 1101.12 659.13 1109.51 660.004L1297.62 679.616C1306.01 680.49 1312.09 687.996 1311.22 696.38L1304.89 757.103C1304.01 765.487 1296.51 771.575 1288.12 770.701L1100.01 751.089C1091.63 750.215 1085.54 742.709 1086.41 734.325Z" fill="#BF9000" fill-rule="evenodd"/><path d="M1000 698.167C1000 690.895 1005.89 685 1013.17 685L1206.83 685C1214.1 685 1220 690.895 1220 698.167L1220 750.833C1220 758.105 1214.1 764 1206.83 764L1013.17 764C1005.89 764 1000 758.105 1000 750.833Z" fill="#BF9000" fill-rule="evenodd"/><path d="M1064 685 1152.51 756.053" stroke="#705500" stroke-width="2" stroke-miterlimit="8" fill="none" fill-rule="evenodd"/><path d="M1097 687 1185.51 758.053" stroke="#705500" stroke-width="2" stroke-miterlimit="8" fill="none" fill-rule="evenodd"/><path d="M1036 688 1124.51 759.053" stroke="#705500" stroke-width="2" stroke-miterlimit="8" fill="none" fill-rule="evenodd"/></g></svg>