<svg width="1071" height="1070" xmlns="http://www.w3.org/2000/svg" xmlns:xlink="http://www.w3.org/1999/xlink" overflow="hidden"><defs><clipPath id="clip0"><path d="M430 1456 1501 1456 1501 2526 430 2526Z" fill-rule="evenodd" clip-rule="evenodd"/></clipPath></defs><g clip-path="url(#clip0)" transform="translate(-430 -1456)"><path d="M431 1991C431 1696.08 670.08 1457 965 1457 1259.92 1457 1499 1696.08 1499 1991 1499 2285.92 1259.92 2525 965 2525 670.08 2525 431 2285.92 431 1991Z" fill="#A9D18E" fill-rule="evenodd"/><rect x="964" y="1641" width="25" height="16" fill="#A4341A"/><path d="M964.5 1640.5 964.5 1708.68" stroke="#E7E6E6" stroke-miterlimit="8" fill="none" fill-rule="evenodd"/><rect x="641" y="1696" width="650" height="121" fill="#A4341A"/><path d="M1199 1816 1290.5 1697 1382 1816Z" fill="#A4341A" fill-rule="evenodd"/><path d="M1160 1817 1384.61 1817" stroke="#F2F2F2" stroke-width="2" stroke-miterlimit="8" fill="none" fill-rule="evenodd"/><path d="M549 1817 641 1697 733 1817Z" fill="#A4341A" fill-rule="evenodd"/><path d="M543 1816 767.607 1816" stroke="#F2F2F2" stroke-width="2" stroke-miterlimit="8" fill="none" fill-rule="evenodd"/><rect x="543" y="1817" width="842" height="405" fill="#BF9000"/><rect x="766" y="1791" width="396" height="431" fill="#C89800"/><rect x="568" y="1848" width="70" height="78" stroke="#FFFFFF" stroke-width="2" stroke-miterlimit="8" fill="#8FAADC"/><path d="M603 1848 603 1926.33" stroke="#FFFFFF" stroke-width="2" stroke-miterlimit="8" fill="none" fill-rule="evenodd"/><rect x="673" y="1848" width="70" height="78" stroke="#FFFFFF" stroke-width="2" stroke-miterlimit="8" fill="#8FAADC"/><path d="M708 1848 708 1926.33" stroke="#FFFFFF" stroke-width="2" stroke-miterlimit="8" fill="none" fill-rule="evenodd"/><rect x="570" y="1957" width="70" height="78" stroke="#FFFFFF" stroke-width="2" stroke-miterlimit="8" fill="#8FAADC"/><path d="M605 1957 605 2035.33" stroke="#FFFFFF" stroke-width="2" stroke-miterlimit="8" fill="none" fill-rule="evenodd"/><rect x="673" y="1957" width="70" height="78" stroke="#FFFFFF" stroke-width="2" stroke-miterlimit="8" fill="#8FAADC"/><path d="M708 1957 708 2035.33" stroke="#FFFFFF" stroke-width="2" stroke-miterlimit="8" fill="none" fill-rule="evenodd"/><rect x="570" y="2066" width="70" height="79" stroke="#FFFFFF" stroke-width="2" stroke-miterlimit="8" fill="#8FAADC"/><path d="M605 2066 605 2144.33" stroke="#FFFFFF" stroke-width="2" stroke-miterlimit="8" fill="none" fill-rule="evenodd"/><rect x="673" y="2066" width="70" height="78" stroke="#FFFFFF" stroke-width="2" stroke-miterlimit="8" fill="#8FAADC"/><path d="M708 2066 708 2144.33" stroke="#FFFFFF" stroke-width="2" stroke-miterlimit="8" fill="none" fill-rule="evenodd"/><rect x="1184" y="1848" width="70" height="78" stroke="#FFFFFF" stroke-width="2" stroke-miterlimit="8" fill="#8FAADC"/><path d="M1219 1848 1219 1926.33" stroke="#FFFFFF" stroke-width="2" stroke-miterlimit="8" fill="none" fill-rule="evenodd"/><rect x="1289" y="1848" width="70" height="78" stroke="#FFFFFF" stroke-width="2" stroke-miterlimit="8" fill="#8FAADC"/><path d="M1324 1848 1324 1926.33" stroke="#FFFFFF" stroke-width="2" stroke-miterlimit="8" fill="none" fill-rule="evenodd"/><rect x="1186" y="1957" width="70" height="78" stroke="#FFFFFF" stroke-width="2" stroke-miterlimit="8" fill="#8FAADC"/><path d="M1221 1957 1221 2035.33" stroke="#FFFFFF" stroke-width="2" stroke-miterlimit="8" fill="none" fill-rule="evenodd"/><rect x="1289" y="1957" width="70" height="78" stroke="#FFFFFF" stroke-width="2" stroke-miterlimit="8" fill="#8FAADC"/><path d="M1324 1957 1324 2035.33" stroke="#FFFFFF" stroke-width="2" stroke-miterlimit="8" fill="none" fill-rule="evenodd"/><rect x="1186" y="2066" width="70" height="79" stroke="#FFFFFF" stroke-width="2" stroke-miterlimit="8" fill="#8FAADC"/><path d="M1221 2066 1221 2144.33" stroke="#FFFFFF" stroke-width="2" stroke-miterlimit="8" fill="none" fill-rule="evenodd"/><rect x="1289" y="2066" width="70" height="78" stroke="#FFFFFF" stroke-width="2" stroke-miterlimit="8" fill="#8FAADC"/><path d="M1324 2066 1324 2144.33" stroke="#FFFFFF" stroke-width="2" stroke-miterlimit="8" fill="none" fill-rule="evenodd"/><rect x="929" y="1815" width="70" height="78" stroke="#FFFFFF" stroke-width="2" stroke-miterlimit="8" fill="#8FAADC"/><path d="M964 1815 964 1893.33" stroke="#FFFFFF" stroke-width="2" stroke-miterlimit="8" fill="none" fill-rule="evenodd"/><rect x="1042" y="1815" width="70" height="78" stroke="#FFFFFF" stroke-width="2" stroke-miterlimit="8" fill="#8FAADC"/><path d="M1077 1815 1077 1893.33" stroke="#FFFFFF" stroke-width="2" stroke-miterlimit="8" fill="none" fill-rule="evenodd"/><rect x="931" y="1924" width="70" height="79" stroke="#FFFFFF" stroke-width="2" stroke-miterlimit="8" fill="#8FAADC"/><path d="M966 1924 966 2002.33" stroke="#FFFFFF" stroke-width="2" stroke-miterlimit="8" fill="none" fill-rule="evenodd"/><rect x="1042" y="1924" width="70" height="78" stroke="#FFFFFF" stroke-width="2" stroke-miterlimit="8" fill="#8FAADC"/><path d="M1077 1924 1077 2002.33" stroke="#FFFFFF" stroke-width="2" stroke-miterlimit="8" fill="none" fill-rule="evenodd"/><rect x="815" y="1815" width="70" height="78" stroke="#FFFFFF" stroke-width="2" stroke-miterlimit="8" fill="#8FAADC"/><path d="M850 1815 850 1893.33" stroke="#FFFFFF" stroke-width="2" stroke-miterlimit="8" fill="none" fill-rule="evenodd"/><rect x="815" y="1924" width="70" height="78" stroke="#FFFFFF" stroke-width="2" stroke-miterlimit="8" fill="#8FAADC"/><path d="M850 1924 850 2002.33" stroke="#FFFFFF" stroke-width="2" stroke-miterlimit="8" fill="none" fill-rule="evenodd"/><rect x="1042" y="2033" width="70" height="78" stroke="#FFFFFF" stroke-width="2" stroke-miterlimit="8" fill="#8FAADC"/><path d="M1077 2033 1077 2111.33" stroke="#FFFFFF" stroke-width="2" stroke-miterlimit="8" fill="none" fill-rule="evenodd"/><rect x="815" y="2033" width="70" height="78" stroke="#FFFFFF" stroke-width="2" stroke-miterlimit="8" fill="#8FAADC"/><path d="M850 2033 850 2111.33" stroke="#FFFFFF" stroke-width="2" stroke-miterlimit="8" fill="none" fill-rule="evenodd"/><rect x="912" y="2066" width="105" height="119" fill="#95712F"/><rect x="766" y="2185" width="396" height="37" fill="#7F6000"/><rect x="543" y="2193" width="223" height="29" fill="#765A00"/><rect x="1162" y="2193" width="223" height="29" fill="#765A00"/><path d="M763 1791 963.5 1687 1164 1791Z" stroke="#F2F2F2" stroke-width="2" stroke-miterlimit="8" fill="#C89800" fill-rule="evenodd"/></g></svg>